# xmcd
#
# Track frame offsets:
#	150
#	12300
#	26063
#	54327
#	64710
#	77753
#	90013
#	103115
#	120568
#	136828
#	148103
#	160413
#	181255
#	192695
#	215653
#	230978
#	243173
#	257475
#	269345
#	286615
#	299862
#	317300
#
# Disc length: 4453 seconds
#
# Revision: 4
# Processed by: cddbd v1.5.1PL0 Copyright (c) Steve Scherf et al.
# Submitted via: audiograbber 1.83.01
#
DISCID=3f116316
DTITLE=Various Artist - Boot Scootin' 6
DYEAR=1900
DGENRE=Country
TTITLE0=Tracy Lawrence - Renegades, Rebels And Rogues
TTITLE1=Mel McDaniel - Baby's Got Her Blue Jeans On
TTITLE2=Bellamy Brothers - Rib Off The Knob (Dance)
TTITLE3=Ken Mellons - Rub-A-Dubbin'
TTITLE4=John Michael Montgomery - Be My Baby Tonight
TTITLE5=Tammy Wynette - Stand By Your Man
TTITLE6=George Strait - Lovebug
TTITLE7=Trisha Yearwood - She's In Love With The Boy
TTITLE8=Mark Chesnutt - Wrong Place, Wrong Time
TTITLE9=Hank Williams, Jr. - Texas Women
TTITLE10=Charlie Rich - The Most Beautiful Girl
TTITLE11=Sawyer Brown - Six Days On The Road (Club Mix)
TTITLE12=WIllie Nelson - The Party's Over
TTITLE13=Joe Diffie - Third Rock From The Sun (Extended Play Mix)
TTITLE14=Tim Mensy - This Ol' Heart
TTITLE15=Oak Ridge Boys - Elvira
TTITLE16=Rick Trevino - Doctor Time
TTITLE17=Steve Earle - Guitar Town
TTITLE18=Tracy Byrd - Holdin' Heaven (Club Mix)
TTITLE19=George Strait - Blue Clear Sky
TTITLE20=Ray Price - For The Good times
TTITLE21=Vince Gill - You Better Think Twice (Single Version)
EXTD=
EXTT0=
EXTT1=
EXTT2=
EXTT3=
EXTT4=
EXTT5=
EXTT6=
EXTT7=
EXTT8=
EXTT9=
EXTT10=
EXTT11=
EXTT12=
EXTT13=
EXTT14=
EXTT15=
EXTT16=
EXTT17=
EXTT18=
EXTT19=
EXTT20=
EXTT21=
PLAYORDER=
